<?xml version="1.0" encoding="UTF-8" standalone="no"?>
<svg xmlns="http://www.w3.org/2000/svg" width="1536" height="1024" viewBox="0 0 1536 1024" version="1.1">
  <g fill="#000000" fill-rule="evenodd" stroke="none">
    <path d="M 903 878 L 880 878 L 879 879 L 861 879 L 860 880 L 853 880 L 853 884 L 858 884 L 859 883 L 866 883 L 867 882 L 874 882 L 875 881 L 881 881 L 882 880 L 888 880 L 889 879 L 896 879 L 897 878 Z"/>
    <path d="M 628 878 L 635 878 L 636 879 L 643 879 L 644 880 L 650 880 L 651 881 L 656 881 L 657 882 L 663 882 L 664 883 L 672 883 L 673 884 L 678 884 L 678 880 L 670 880 L 669 879 L 648 879 L 647 878 Z"/>
    <path d="M 820 866 L 820 868 L 819 869 L 819 871 L 818 872 L 818 873 L 817 874 L 817 876 L 816 877 L 812 877 L 811 878 L 804 878 L 807 881 L 808 881 L 813 886 L 813 889 L 812 890 L 812 894 L 811 895 L 811 897 L 813 895 L 814 895 L 815 894 L 816 894 L 817 893 L 818 893 L 819 892 L 820 892 L 821 891 L 822 892 L 823 892 L 825 894 L 826 894 L 827 895 L 828 895 L 830 897 L 830 893 L 829 892 L 829 888 L 828 887 L 828 886 L 834 880 L 835 880 L 837 878 L 830 878 L 829 877 L 826 877 L 824 875 L 824 873 L 823 872 L 823 871 L 822 870 L 822 868 L 821 867 L 821 866 Z"/>
    <path d="M 712 866 L 711 867 L 711 868 L 710 869 L 710 871 L 709 872 L 709 873 L 708 874 L 708 876 L 707 877 L 703 877 L 702 878 L 695 878 L 698 881 L 699 881 L 704 886 L 704 888 L 703 889 L 703 893 L 702 894 L 702 897 L 704 895 L 705 895 L 706 894 L 707 894 L 708 893 L 709 893 L 710 892 L 711 892 L 712 891 L 713 892 L 714 892 L 716 894 L 717 894 L 718 895 L 719 895 L 721 897 L 721 894 L 720 893 L 720 889 L 719 888 L 719 886 L 724 881 L 725 881 L 728 878 L 721 878 L 720 877 L 717 877 L 716 876 L 716 875 L 715 874 L 715 873 L 714 872 L 714 871 L 713 870 L 713 869 L 712 868 Z"/>
    <path d="M 768 857 L 767 858 L 767 860 L 765 863 L 765 865 L 764 866 L 764 868 L 762 871 L 762 873 L 760 875 L 754 875 L 753 876 L 742 876 L 746 880 L 747 880 L 751 884 L 752 884 L 757 889 L 756 890 L 756 893 L 755 894 L 755 897 L 754 898 L 754 901 L 753 902 L 752 907 L 754 905 L 757 904 L 759 902 L 760 902 L 762 900 L 763 900 L 765 898 L 766 898 L 767 897 L 769 897 L 774 901 L 777 902 L 779 904 L 780 904 L 782 906 L 783 906 L 783 903 L 782 902 L 782 899 L 781 898 L 781 896 L 780 895 L 780 892 L 779 891 L 779 888 L 782 885 L 783 885 L 786 882 L 787 882 L 793 876 L 784 876 L 783 875 L 776 875 L 774 873 L 774 872 L 771 867 L 771 865 L 770 864 L 770 862 L 768 859 Z"/>
    <path d="M 974 813 L 971 813 L 970 812 L 954 812 L 954 820 L 953 821 L 953 836 L 952 837 L 952 847 L 953 847 L 954 848 L 958 848 L 958 845 L 959 844 L 959 837 L 961 835 L 973 835 L 974 834 L 975 834 L 976 833 L 977 833 L 979 831 L 979 830 L 980 829 L 980 827 L 981 826 L 981 822 L 980 821 L 980 818 L 976 814 L 975 814 Z M 962 817 L 968 817 L 969 818 L 971 818 L 973 820 L 973 821 L 974 822 L 974 825 L 973 826 L 973 827 L 970 830 L 961 830 L 960 829 L 960 819 Z"/>
    <path d="M 569 812 L 568 812 L 567 811 L 565 811 L 564 810 L 556 810 L 555 811 L 544 811 L 544 822 L 545 823 L 545 847 L 562 847 L 563 846 L 567 846 L 568 845 L 569 845 L 573 841 L 573 832 L 569 828 L 568 828 L 567 827 L 568 826 L 569 826 L 570 825 L 570 824 L 571 823 L 571 822 L 572 821 L 572 817 L 571 816 L 571 815 L 570 814 L 570 813 Z M 552 832 L 553 831 L 564 831 L 566 833 L 566 834 L 567 835 L 567 837 L 563 841 L 553 841 L 552 840 Z M 551 816 L 552 815 L 560 815 L 561 816 L 563 816 L 565 818 L 565 822 L 562 825 L 558 825 L 557 826 L 553 826 L 551 824 Z"/>
    <path d="M 917 809 L 916 810 L 911 810 L 910 811 L 909 811 L 908 812 L 907 812 L 903 816 L 903 817 L 902 818 L 902 819 L 901 820 L 901 821 L 900 822 L 900 834 L 901 835 L 901 836 L 902 837 L 902 838 L 903 839 L 903 840 L 906 843 L 907 843 L 909 845 L 911 845 L 912 846 L 916 846 L 917 847 L 919 847 L 920 846 L 924 846 L 925 845 L 927 845 L 929 843 L 930 843 L 933 840 L 933 839 L 935 837 L 935 835 L 936 834 L 936 822 L 935 821 L 935 819 L 934 818 L 934 817 L 929 812 L 928 812 L 927 811 L 926 811 L 925 810 L 921 810 L 920 809 Z M 915 815 L 920 815 L 921 816 L 923 816 L 924 817 L 925 817 L 928 820 L 928 821 L 929 822 L 929 825 L 930 826 L 930 828 L 929 829 L 929 833 L 928 834 L 928 835 L 923 840 L 921 840 L 920 841 L 916 841 L 915 840 L 913 840 L 911 838 L 910 838 L 909 837 L 909 836 L 908 835 L 908 834 L 907 833 L 907 823 L 908 822 L 908 821 L 909 820 L 909 819 L 911 817 L 912 817 L 913 816 L 914 816 Z"/>
    <path d="M 853 808 L 853 825 L 852 826 L 852 844 L 859 844 L 859 830 L 860 829 L 876 829 L 877 830 L 877 845 L 883 845 L 883 834 L 884 833 L 884 808 L 878 808 L 878 817 L 877 818 L 877 822 L 876 823 L 861 823 L 859 821 L 860 820 L 860 808 Z"/>
    <path d="M 606 808 L 603 808 L 602 809 L 599 809 L 599 811 L 597 814 L 597 816 L 596 817 L 596 819 L 595 820 L 595 822 L 594 823 L 594 825 L 593 826 L 593 828 L 592 829 L 592 831 L 591 832 L 591 834 L 590 835 L 590 837 L 589 838 L 589 840 L 587 843 L 587 846 L 593 846 L 594 845 L 594 843 L 595 842 L 595 841 L 596 840 L 596 839 L 597 838 L 600 838 L 601 837 L 611 837 L 612 838 L 612 839 L 613 840 L 613 842 L 615 845 L 621 845 L 622 844 L 620 841 L 620 839 L 618 836 L 618 834 L 617 833 L 617 832 L 615 829 L 615 827 L 613 824 L 613 822 L 611 819 L 611 817 L 610 816 L 610 815 L 608 812 L 608 810 Z M 603 818 L 604 818 L 605 819 L 605 820 L 606 821 L 606 823 L 607 824 L 607 826 L 608 827 L 608 829 L 609 830 L 607 832 L 600 832 L 599 831 L 599 828 L 600 827 L 600 825 L 601 824 L 601 822 L 602 821 L 602 819 Z"/>
    <path d="M 636 807 L 635 808 L 635 812 L 636 813 L 636 844 L 642 844 L 643 843 L 643 831 L 644 830 L 648 830 L 650 832 L 650 833 L 652 835 L 652 836 L 653 837 L 653 838 L 655 840 L 655 841 L 657 843 L 657 844 L 664 844 L 665 843 L 663 841 L 663 840 L 661 838 L 661 837 L 660 836 L 660 835 L 658 833 L 658 832 L 656 830 L 656 829 L 657 828 L 658 828 L 661 826 L 661 825 L 663 822 L 663 815 L 662 814 L 662 813 L 661 812 L 661 811 L 659 809 L 658 809 L 657 808 L 655 808 L 654 807 Z M 642 814 L 643 813 L 652 813 L 653 814 L 654 814 L 656 816 L 656 821 L 653 824 L 651 824 L 650 825 L 644 825 L 642 823 Z"/>
    <path d="M 815 807 L 814 808 L 813 808 L 809 812 L 809 814 L 808 815 L 808 819 L 809 820 L 810 823 L 811 823 L 813 825 L 814 825 L 817 827 L 819 827 L 820 828 L 823 828 L 824 829 L 826 829 L 829 832 L 829 835 L 826 838 L 824 838 L 823 839 L 818 838 L 814 834 L 814 833 L 808 833 L 807 834 L 807 835 L 808 836 L 809 839 L 815 843 L 817 843 L 818 844 L 828 844 L 829 843 L 832 842 L 835 839 L 835 838 L 836 837 L 836 830 L 835 829 L 835 828 L 831 824 L 830 824 L 829 823 L 826 823 L 825 822 L 823 822 L 822 821 L 819 821 L 816 818 L 816 817 L 815 816 L 816 815 L 816 814 L 819 812 L 824 812 L 825 813 L 826 813 L 829 816 L 836 816 L 836 815 L 835 814 L 834 811 L 832 809 L 831 809 L 828 807 L 826 807 L 825 806 L 820 806 L 819 807 Z"/>
    <path d="M 765 806 L 765 843 L 771 843 L 771 831 L 773 829 L 778 829 L 779 830 L 779 831 L 780 832 L 780 833 L 781 834 L 781 835 L 783 837 L 783 838 L 784 839 L 784 840 L 786 842 L 786 843 L 793 843 L 793 842 L 792 841 L 792 840 L 791 839 L 791 838 L 790 837 L 790 836 L 788 834 L 788 833 L 787 832 L 787 831 L 785 829 L 787 827 L 788 827 L 791 824 L 791 823 L 792 822 L 792 820 L 793 819 L 793 816 L 792 815 L 792 813 L 791 812 L 791 811 L 788 808 L 787 808 L 786 807 L 784 807 L 783 806 Z M 771 822 L 771 818 L 772 817 L 772 813 L 773 812 L 782 812 L 785 815 L 785 816 L 786 817 L 786 819 L 782 823 L 781 823 L 780 824 L 773 824 Z"/>
    <path d="M 725 806 L 725 843 L 748 843 L 749 842 L 749 838 L 738 838 L 737 837 L 733 837 L 732 836 L 732 828 L 733 827 L 744 827 L 744 822 L 733 822 L 732 821 L 732 813 L 733 812 L 748 812 L 748 806 Z"/>
    <path d="M 705 809 L 704 809 L 702 807 L 698 807 L 697 806 L 695 806 L 694 807 L 680 807 L 680 843 L 700 843 L 701 842 L 703 842 L 704 841 L 705 841 L 708 838 L 708 836 L 709 835 L 709 832 L 708 831 L 708 829 L 704 825 L 703 825 L 702 824 L 703 823 L 704 823 L 705 822 L 705 821 L 707 819 L 707 813 L 706 812 L 706 811 L 705 810 Z M 687 828 L 688 827 L 697 827 L 698 828 L 699 828 L 701 830 L 701 831 L 702 832 L 702 833 L 701 834 L 701 835 L 699 837 L 698 837 L 697 838 L 688 838 L 687 837 Z M 687 813 L 688 812 L 697 812 L 700 815 L 700 819 L 698 821 L 697 821 L 696 822 L 688 822 L 687 821 Z"/>
    <path d="M 474 800 L 586 787 L 700 781 L 866 783 L 1050 800 L 943 785 L 803 777 L 634 780 L 552 787 Z"/>
    <path d="M 1022 680 L 1022 684 L 1027 688 L 1027 753 L 1022 756 L 1022 760 L 1044 762 L 1044 759 L 1039 755 L 1038 752 L 1038 713 L 1040 711 L 1070 766 L 1080 768 L 1080 693 L 1081 687 L 1086 683 L 1086 680 L 1065 680 L 1065 684 L 1070 688 L 1070 728 L 1069 729 L 1043 681 Z"/>
    <path d="M 921 680 L 921 684 L 925 687 L 942 755 L 959 755 L 967 724 L 970 719 L 980 756 L 996 758 L 1012 691 L 1018 683 L 1018 680 L 996 680 L 996 683 L 1001 688 L 1001 695 L 992 737 L 981 694 L 981 688 L 986 684 L 986 680 L 958 680 L 958 684 L 963 689 L 965 699 L 955 735 L 953 733 L 945 696 L 945 688 L 950 684 L 950 680 Z"/>
    <path d="M 798 680 L 798 702 L 804 702 L 805 701 L 805 695 L 806 692 L 809 689 L 811 688 L 815 688 L 817 690 L 817 743 L 815 746 L 811 747 L 811 751 L 841 751 L 840 748 L 838 747 L 834 742 L 834 694 L 835 693 L 835 689 L 836 688 L 840 688 L 845 692 L 847 698 L 847 701 L 854 701 L 854 680 Z"/>
    <path d="M 722 680 L 722 682 L 724 684 L 724 689 L 719 702 L 719 705 L 713 721 L 713 724 L 712 725 L 706 744 L 701 748 L 701 751 L 723 751 L 723 748 L 718 744 L 719 736 L 722 732 L 742 732 L 744 734 L 746 743 L 743 747 L 741 747 L 741 751 L 770 751 L 770 747 L 766 745 L 763 739 L 763 736 L 761 733 L 761 730 L 759 726 L 759 723 L 757 719 L 757 716 L 751 699 L 751 696 L 748 689 L 748 686 L 747 685 L 746 680 Z M 732 696 L 734 698 L 734 700 L 735 701 L 735 703 L 736 704 L 736 706 L 737 707 L 737 710 L 738 711 L 738 713 L 739 714 L 739 717 L 740 718 L 740 721 L 741 722 L 741 724 L 740 725 L 724 725 L 723 724 L 723 722 L 724 721 L 724 719 L 725 718 L 725 716 L 726 715 L 726 712 L 727 711 L 727 709 L 728 708 L 728 706 L 729 705 L 729 703 L 730 702 L 730 700 L 731 699 L 731 697 Z"/>
    <path d="M 633 680 L 633 683 L 637 685 L 639 688 L 639 744 L 636 747 L 634 747 L 633 750 L 634 751 L 655 751 L 655 748 L 650 744 L 650 707 L 651 706 L 680 751 L 692 751 L 692 688 L 695 684 L 698 683 L 698 680 L 677 680 L 677 683 L 682 688 L 682 720 L 680 722 L 654 680 Z"/>
    <path d="M 597 680 L 597 683 L 598 684 L 599 684 L 603 688 L 603 743 L 600 747 L 598 747 L 597 748 L 596 748 L 596 752 L 618 752 L 619 751 L 627 751 L 626 750 L 626 748 L 625 747 L 623 747 L 620 743 L 620 689 L 621 688 L 621 687 L 624 684 L 625 684 L 626 683 L 626 680 Z"/>
    <path d="M 545 680 L 545 682 L 547 684 L 548 687 L 545 694 L 545 697 L 542 704 L 542 707 L 539 714 L 539 717 L 537 721 L 536 728 L 533 735 L 533 738 L 529 749 L 524 753 L 524 757 L 537 756 L 538 755 L 546 755 L 546 752 L 544 751 L 541 747 L 543 736 L 544 735 L 553 735 L 554 734 L 565 734 L 567 736 L 569 742 L 569 745 L 568 747 L 564 750 L 564 753 L 594 752 L 594 749 L 592 748 L 587 742 L 569 680 Z M 555 697 L 556 697 L 557 698 L 557 700 L 558 701 L 558 703 L 559 704 L 559 707 L 560 708 L 560 711 L 561 712 L 561 714 L 562 715 L 562 718 L 563 719 L 563 721 L 564 722 L 564 725 L 565 726 L 564 727 L 547 727 L 546 726 L 547 725 L 547 722 L 548 721 L 548 719 L 549 718 L 549 715 L 550 714 L 550 712 L 551 711 L 551 708 L 552 707 L 552 704 L 553 703 L 553 701 L 554 700 L 554 698 Z"/>
    <path d="M 439 680 L 439 684 L 444 689 L 444 760 L 439 767 L 439 771 L 459 766 L 459 762 L 454 758 L 455 710 L 470 751 L 477 752 L 481 748 L 492 714 L 496 708 L 497 752 L 492 757 L 492 762 L 520 757 L 520 754 L 514 749 L 514 689 L 520 683 L 520 680 L 494 680 L 479 723 L 477 721 L 464 680 Z"/>
    <path d="M 882 679 L 881 680 L 876 681 L 874 682 L 871 685 L 870 685 L 864 692 L 862 696 L 862 698 L 860 702 L 860 705 L 859 706 L 859 724 L 860 725 L 860 730 L 861 731 L 862 736 L 865 740 L 865 741 L 867 743 L 867 744 L 876 751 L 878 751 L 881 753 L 885 753 L 886 754 L 893 754 L 894 753 L 899 753 L 905 750 L 907 748 L 908 748 L 912 744 L 912 743 L 914 741 L 916 737 L 916 735 L 918 731 L 918 727 L 919 726 L 919 708 L 918 707 L 918 703 L 917 702 L 917 700 L 916 699 L 916 697 L 914 693 L 912 691 L 912 690 L 905 683 L 899 680 L 897 680 L 896 679 Z M 888 687 L 890 687 L 891 688 L 893 688 L 897 692 L 897 693 L 898 694 L 898 696 L 899 697 L 899 702 L 900 703 L 900 732 L 899 733 L 899 737 L 898 738 L 898 740 L 896 742 L 896 743 L 895 744 L 894 744 L 891 746 L 887 746 L 886 745 L 885 745 L 881 741 L 881 740 L 880 739 L 880 737 L 879 736 L 879 731 L 878 730 L 878 702 L 879 701 L 879 697 L 880 696 L 880 694 L 881 693 L 881 692 L 885 688 L 887 688 Z"/>
    <path d="M 1010 507 L 1006 511 L 1004 511 L 1003 512 L 1002 512 L 1002 515 L 1003 516 L 1004 515 L 1009 515 L 1010 516 L 1010 535 L 1015 535 L 1015 508 L 1014 507 Z"/>
    <path d="M 982 507 L 980 509 L 979 509 L 979 510 L 977 513 L 977 515 L 982 515 L 982 514 L 984 511 L 985 511 L 986 510 L 988 510 L 991 512 L 991 513 L 992 514 L 992 516 L 991 517 L 991 518 L 983 526 L 982 526 L 977 531 L 977 536 L 986 536 L 987 535 L 997 535 L 997 531 L 986 531 L 985 530 L 989 526 L 990 526 L 995 521 L 995 520 L 997 517 L 997 512 L 996 511 L 996 510 L 993 507 L 991 507 L 990 506 L 985 506 L 984 507 Z"/>
    <path d="M 960 506 L 959 507 L 957 507 L 953 511 L 953 513 L 952 514 L 952 528 L 953 529 L 953 531 L 957 535 L 959 535 L 960 536 L 964 536 L 965 535 L 967 535 L 970 532 L 970 531 L 971 530 L 971 529 L 972 528 L 972 522 L 973 521 L 973 519 L 972 518 L 972 514 L 971 513 L 971 511 L 967 507 L 965 507 L 964 506 Z M 961 510 L 963 510 L 967 514 L 967 527 L 966 528 L 966 529 L 963 532 L 961 532 L 960 531 L 959 531 L 958 530 L 958 529 L 957 528 L 957 514 L 958 513 L 958 512 L 959 511 L 960 511 Z"/>
    <path d="M 932 507 L 928 511 L 928 514 L 927 515 L 932 515 L 932 514 L 933 513 L 933 512 L 934 511 L 935 511 L 936 510 L 939 510 L 942 513 L 942 517 L 940 519 L 940 520 L 938 522 L 937 522 L 931 528 L 930 528 L 927 531 L 927 535 L 948 535 L 948 534 L 947 533 L 947 531 L 937 531 L 936 530 L 946 520 L 946 519 L 947 518 L 947 512 L 946 511 L 946 510 L 943 507 L 941 507 L 940 506 L 935 506 L 934 507 Z"/>
    <path d="M 569 506 L 569 535 L 586 535 L 587 534 L 588 534 L 592 530 L 592 529 L 593 528 L 593 527 L 594 526 L 594 516 L 593 515 L 593 513 L 592 512 L 592 511 L 590 509 L 589 509 L 587 507 L 584 507 L 583 506 Z M 575 511 L 583 511 L 584 512 L 585 512 L 587 514 L 587 515 L 588 516 L 588 518 L 589 519 L 589 522 L 588 523 L 588 526 L 584 530 L 583 530 L 582 531 L 575 531 L 574 530 L 574 512 Z"/>
    <path d="M 540 506 L 540 511 L 548 511 L 549 512 L 549 514 L 550 515 L 550 522 L 549 523 L 549 529 L 550 530 L 550 535 L 555 535 L 555 512 L 556 511 L 564 511 L 564 506 Z"/>
    <path d="M 520 506 L 519 507 L 518 507 L 515 509 L 515 510 L 514 511 L 514 518 L 517 521 L 519 521 L 520 522 L 522 522 L 523 523 L 526 523 L 527 524 L 529 524 L 531 526 L 531 529 L 529 531 L 527 531 L 526 532 L 524 532 L 523 531 L 521 531 L 519 529 L 519 528 L 518 527 L 512 527 L 513 528 L 513 530 L 515 533 L 516 533 L 519 535 L 521 535 L 522 536 L 528 536 L 529 535 L 531 535 L 532 534 L 533 534 L 536 531 L 536 528 L 537 527 L 536 526 L 536 523 L 533 520 L 532 520 L 531 519 L 529 519 L 528 518 L 524 518 L 523 517 L 521 517 L 519 515 L 519 512 L 521 510 L 528 510 L 530 512 L 530 513 L 531 514 L 536 514 L 536 512 L 535 511 L 535 510 L 532 507 L 531 507 L 530 506 Z"/>
    <path d="M 488 506 L 487 507 L 487 535 L 509 535 L 509 531 L 494 531 L 493 530 L 493 524 L 494 523 L 506 523 L 507 522 L 507 519 L 506 518 L 505 518 L 504 519 L 502 519 L 501 518 L 494 518 L 493 517 L 493 512 L 494 511 L 508 511 L 508 506 Z"/>
    <path d="M 766 473 L 768 475 L 769 475 L 773 479 L 774 479 L 776 481 L 777 481 L 780 484 L 781 484 L 783 486 L 784 486 L 787 489 L 788 489 L 791 492 L 792 492 L 794 494 L 795 494 L 798 497 L 799 497 L 802 500 L 803 500 L 805 502 L 806 502 L 808 504 L 809 504 L 811 506 L 811 505 L 809 503 L 809 502 L 808 501 L 808 500 L 806 498 L 806 497 L 803 494 L 803 493 L 801 491 L 800 491 L 799 490 L 798 490 L 797 489 L 796 489 L 795 488 L 793 488 L 792 487 L 791 487 L 790 486 L 789 486 L 788 485 L 787 485 L 786 484 L 785 484 L 784 483 L 783 483 L 782 482 L 781 482 L 779 480 L 778 480 L 777 479 L 776 479 L 775 478 L 774 478 L 773 477 L 772 477 L 770 475 L 769 475 L 768 474 L 767 474 Z"/>
    <path d="M 748 470 L 732 487 L 724 500 L 727 501 L 746 514 L 749 515 L 754 519 L 760 522 L 763 525 L 776 533 L 779 536 L 786 540 L 797 549 L 807 555 L 813 560 L 817 562 L 819 562 L 820 560 L 820 552 L 821 551 L 821 539 L 820 538 L 820 531 L 819 530 L 819 526 L 817 522 L 817 519 L 806 510 L 802 508 L 777 489 L 770 485 L 763 479 L 751 471 Z"/>
    <path d="M 738 425 L 691 516 L 682 525 L 675 529 L 655 532 L 642 538 L 629 552 L 624 566 L 624 581 L 634 603 L 634 615 L 625 626 L 620 628 L 610 628 L 611 633 L 615 636 L 625 638 L 632 635 L 649 616 L 674 616 L 687 612 L 696 606 L 704 597 L 711 578 L 711 568 L 708 554 L 708 534 L 711 518 L 723 493 L 733 480 L 750 463 L 761 455 L 742 438 Z M 664 541 L 669 541 L 670 542 L 675 542 L 676 543 L 679 543 L 680 544 L 683 545 L 685 547 L 686 547 L 695 556 L 695 557 L 697 560 L 697 562 L 699 565 L 699 570 L 700 571 L 700 577 L 699 578 L 699 582 L 698 583 L 698 585 L 697 586 L 695 591 L 693 593 L 693 594 L 687 600 L 686 600 L 684 602 L 683 602 L 678 605 L 675 605 L 674 606 L 669 606 L 668 607 L 666 607 L 665 606 L 659 606 L 658 605 L 653 604 L 649 601 L 648 601 L 646 599 L 645 599 L 639 592 L 639 591 L 635 584 L 635 581 L 634 580 L 634 567 L 635 566 L 636 561 L 638 559 L 639 556 L 648 547 L 649 547 L 651 545 L 652 545 L 653 544 L 655 544 L 656 543 L 658 543 L 659 542 L 663 542 Z"/>
    <path d="M 480 328 L 466 360 L 463 388 L 504 341 L 478 398 L 519 350 L 493 407 L 534 360 L 508 416 L 549 369 L 551 375 L 523 426 L 565 379 L 538 435 L 579 388 L 581 394 L 554 445 L 594 398 L 597 403 L 569 454 L 609 408 L 612 413 L 585 464 L 625 419 L 601 474 L 640 429 L 616 483 L 655 439 L 630 492 L 668 449 L 671 455 L 645 499 L 648 503 L 680 480 L 704 484 L 725 442 L 663 398 L 533 319 L 503 313 Z"/>
    <path d="M 706 309 L 750 436 L 801 483 L 820 512 L 826 537 L 823 579 L 829 596 L 849 613 L 860 616 L 883 615 L 903 635 L 919 637 L 925 628 L 911 627 L 899 612 L 900 600 L 910 576 L 904 551 L 887 535 L 860 530 L 843 518 L 732 301 L 723 305 L 756 381 L 720 305 Z M 863 541 L 870 541 L 871 542 L 876 542 L 877 543 L 879 543 L 880 544 L 885 546 L 888 549 L 889 549 L 895 556 L 895 557 L 899 564 L 899 567 L 900 568 L 900 580 L 899 581 L 898 586 L 897 587 L 895 592 L 886 601 L 883 602 L 881 604 L 879 604 L 878 605 L 876 605 L 875 606 L 870 606 L 869 607 L 865 607 L 864 606 L 860 606 L 859 605 L 854 604 L 853 603 L 850 602 L 847 599 L 846 599 L 839 591 L 839 590 L 836 585 L 836 582 L 835 581 L 835 577 L 834 576 L 834 572 L 835 571 L 835 566 L 836 565 L 837 560 L 840 556 L 840 555 L 848 547 L 849 547 L 851 545 L 852 545 L 855 543 L 857 543 L 858 542 L 862 542 Z M 764 400 L 766 400 L 767 401 L 769 401 L 770 402 L 771 402 L 774 405 L 774 406 L 775 407 L 775 408 L 776 409 L 776 412 L 775 413 L 775 415 L 774 416 L 774 417 L 771 420 L 770 420 L 769 421 L 766 421 L 765 422 L 764 422 L 763 421 L 761 421 L 759 419 L 758 419 L 757 418 L 757 417 L 755 415 L 755 407 L 757 405 L 757 404 L 758 403 L 759 403 L 761 401 L 763 401 Z"/>
    <path d="M 894 124 L 838 231 L 682 262 L 637 280 L 617 302 L 625 324 L 645 327 L 815 270 L 770 362 L 793 407 L 844 266 L 930 253 L 909 306 L 876 322 L 815 440 L 813 452 L 820 467 L 835 479 L 850 465 L 959 252 L 978 247 L 986 236 L 979 222 L 965 219 L 972 192 L 984 182 L 977 178 L 964 187 L 948 221 L 859 227 Z M 881 327 L 882 330 L 876 342 L 874 344 L 874 346 L 855 383 L 855 385 L 851 391 L 834 426 L 832 428 L 827 439 L 825 441 L 821 449 L 821 455 L 825 463 L 824 465 L 822 463 L 818 453 L 818 449 L 821 443 L 821 441 L 830 424 L 831 420 L 833 418 L 841 401 L 843 399 L 850 384 L 852 382 L 857 371 L 859 369 L 866 354 L 868 352 Z M 840 250 L 841 251 L 841 253 L 836 263 L 836 265 L 831 275 L 831 277 L 828 282 L 828 284 L 823 294 L 823 296 L 820 301 L 819 306 L 809 327 L 807 334 L 804 339 L 804 341 L 801 346 L 801 348 L 798 353 L 798 355 L 793 364 L 793 366 L 790 371 L 790 373 L 786 381 L 784 383 L 783 382 L 783 378 L 785 375 L 786 370 L 796 349 L 796 347 L 799 342 L 801 335 L 807 324 L 807 322 L 810 317 L 810 315 L 813 310 L 813 308 L 818 299 L 818 297 L 824 286 L 824 284 L 830 273 L 832 266 Z M 843 243 L 844 244 L 844 246 L 843 247 L 843 248 L 842 249 L 842 250 L 841 251 L 840 250 L 840 248 L 841 247 L 841 246 L 842 245 L 842 244 Z M 799 243 L 757 254 L 726 264 L 715 266 L 653 286 L 639 292 L 630 298 L 625 305 L 626 314 L 633 322 L 637 324 L 636 325 L 633 325 L 627 322 L 620 313 L 619 305 L 624 295 L 636 286 L 651 279 L 686 267 L 751 250 L 792 242 Z M 798 242 L 799 241 L 801 241 L 802 242 L 801 243 L 799 243 Z M 846 236 L 847 237 L 847 239 L 846 240 L 845 239 L 845 237 Z M 957 224 L 960 224 L 961 225 L 962 225 L 966 229 L 966 235 L 961 240 L 956 240 L 951 235 L 951 229 L 955 225 L 956 225 Z"/>
    <path d="M 641 124 L 639 126 L 655 168 L 666 201 L 670 209 L 684 251 L 687 256 L 696 254 L 696 251 L 683 223 L 684 220 L 700 253 L 705 251 L 651 144 L 651 142 L 649 140 L 643 125 Z"/>
  </g>
</svg>
